<svg width="1600" height="600" viewBox="0 0 1600 600" fill="none" xmlns="http://www.w3.org/2000/svg">
  <title>Semantic</title>
  <defs>
    <linearGradient id="ribbonTop" x1="230" y1="150" x2="500" y2="10" gradientUnits="userSpaceOnUse">
      <stop stop-color="#10C6F5"/>
      <stop offset="1" stop-color="#D8DBF5"/>
    </linearGradient>
    <linearGradient id="ribbonMid" x1="200" y1="295" x2="510" y2="295" gradientUnits="userSpaceOnUse">
      <stop stop-color="#DDE2FA"/>
      <stop offset="1" stop-color="#B6B9F0"/>
    </linearGradient>
    <linearGradient id="ribbonBot" x1="225" y1="450" x2="520" y2="300" gradientUnits="userSpaceOnUse">
      <stop stop-color="#D9DCF8"/>
      <stop offset="1" stop-color="#6E7FF1"/>
    </linearGradient>
  </defs>
  <path d="M445 115C418 98 390 88 357 88C315 88 277 103 240 127L172 171C150 186 143 215 158 238C173 261 204 268 228 253L425 128C434 123 440 119 445 115Z" fill="url(#ribbonTop)"/>
  <path d="M180 252C216 226 259 210 307 210C378 210 431 241 476 297C500 326 493 369 461 386C430 403 390 392 367 363C342 331 313 315 277 315C247 315 223 324 199 339L171 357C149 372 141 402 156 425C171 448 201 456 225 442L297 399C320 384 340 379 363 379C386 379 403 384 420 395C382 441 336 468 278 468C232 468 192 454 156 429C121 404 116 361 146 334L180 307C193 297 206 289 220 282L180 252Z" fill="url(#ribbonMid)" fill-opacity="0.92"/>
  <path d="M433 355C448 371 446 398 428 412L300 508C278 525 247 531 222 521C203 514 189 500 183 481C177 462 182 442 198 430L397 287C419 271 450 275 467 296C484 317 478 344 458 358L328 450C363 446 391 432 418 404C424 398 429 390 433 382V355Z" fill="url(#ribbonBot)"/>
  <text x="580" y="345" fill="#111111" font-family="Segoe UI, Inter, Arial, sans-serif" font-size="170" font-weight="400" letter-spacing="0">Semantic</text>
</svg>
